<svg width="362" height="99" viewBox="0 0 362 99" fill="none" xmlns="http://www.w3.org/2000/svg">
<path fill-rule="evenodd" clip-rule="evenodd" d="M101.701 94.8961C130.122 73.9574 129.178 30.7961 105.102 6.19078C104.913 6.00144 104.649 6.00145 104.422 6.15345C104.233 6.30412 104.196 6.60678 104.309 6.83345C117.688 26.5628 109.222 57.6308 84.6929 44.0241C69.2343 35.4814 61.2223 21.0441 48.8249 9.85744C39.9049 1.80678 29.8516 -3.7119 21.1596 3.01611C-6.77105 24.6348 -6.24305 67.2681 17.9836 91.8348C18.1729 92.0241 18.4756 92.0241 18.6649 91.8721C18.8529 91.7214 18.9289 91.4188 18.7783 91.1921C4.86894 70.5188 14.1676 40.4708 38.2809 53.8508C44.3276 57.1761 53.0956 64.8121 65.6823 79.2494C74.6396 89.5294 88.5863 104.572 101.701 94.8961Z" fill="#13B8BA"/>
<path d="M90.249 19.6082C96.2957 25.5415 100.492 33.3655 101.965 42.0962C106.388 38.6949 107.861 32.1562 107.785 26.8642C107.672 20.3642 105.48 14.0149 101.852 8.60953L90.249 19.6082ZM61.5623 13.3335C80.157 12.4269 95.389 25.9962 96.901 44.1362C95.2756 44.7042 93.461 44.5149 91.4583 43.8349C86.469 42.2095 81.1396 37.9015 77.2477 34.4989C72.0317 29.9255 67.2317 24.8615 62.469 19.7975C60.617 17.7935 58.8036 15.8282 56.913 13.8629C58.425 13.5989 59.9743 13.4095 61.5623 13.3335ZM65.9837 84.2375C64.5476 84.4655 63.0743 84.6162 61.5623 84.6922C42.9677 85.3722 27.697 71.6522 26.1863 53.5109C27.281 53.2082 28.529 53.2829 29.889 53.5855C34.0477 54.5682 38.5823 57.7055 41.8703 60.2749C49.8077 66.4362 56.7237 74.0335 63.4517 81.4789C64.2837 82.3855 65.1143 83.3309 65.9837 84.2375ZM32.7623 78.3042C26.677 72.3695 22.4437 64.5469 20.9703 55.8162C16.5477 59.1802 15.0743 65.7562 15.1877 71.0095C15.301 77.5482 17.493 83.8975 21.1597 89.3029L32.7623 78.3042Z" fill="#2C3955"/>
<path fill-rule="evenodd" clip-rule="evenodd" d="M344.837 13.1072H311.956C302.847 13.1072 295.401 20.5526 295.401 29.6619V46.4806C295.401 55.5899 302.847 63.0352 311.956 63.0352H344.837C353.908 63.0352 361.392 55.5899 361.392 46.4806V29.6619C361.392 20.5526 353.908 13.1072 344.837 13.1072ZM143.54 63.0352V13.1072H164.479L188.856 45.9899H192.976V13.1072H209.493V63.0352H188.516L164.139 30.1539H160.019V63.0352H143.54ZM245.965 33.0632H285.424V43.0792H245.965V33.0632ZM235.949 52.9432L285.423 53.0566V63.0352H219.471V13.1072H285.423V23.0859H235.949V52.9432ZM339.017 23.0859L317.739 23.1992C314.525 23.1992 311.919 25.8059 311.919 29.0192V47.1992C311.919 50.4112 314.525 53.0566 317.739 53.0566H339.055C342.268 53.0566 344.875 50.4112 344.875 47.1992V29.0192C344.875 25.8059 342.229 23.0859 339.017 23.0859Z" fill="#13B8BA"/>
<path d="M175.439 74.2975C175.439 73.9948 175.553 73.7308 175.779 73.5415C176.006 73.3148 176.233 73.2015 176.574 73.2015H177.217C177.291 73.2015 177.405 73.2402 177.481 73.3148C177.518 73.3908 177.555 73.4655 177.555 73.5788V83.5202C177.555 83.7842 177.481 84.0482 177.254 84.2375C177.027 84.4642 176.801 84.5775 176.498 84.5775H175.439C175.099 84.5775 174.721 84.4642 174.419 84.2748C173.739 83.8228 172.454 82.9908 170.639 81.7815C168.787 80.5335 166.859 79.2868 164.894 78.0015C162.93 76.6788 161.645 75.8468 161.002 75.4322C160.926 75.3562 160.889 75.3562 160.851 75.3935C160.774 75.4322 160.737 75.5068 160.737 75.5455V83.5202C160.737 83.7842 160.623 84.0482 160.435 84.2375C160.209 84.4642 159.943 84.5775 159.641 84.5775H158.961C158.847 84.5775 158.773 84.5402 158.734 84.4642C158.658 84.4268 158.621 84.3508 158.621 84.2375V74.2975C158.621 73.9948 158.734 73.7308 158.961 73.5415C159.15 73.3148 159.414 73.2015 159.679 73.2015H160.662C161.078 73.2015 161.417 73.3148 161.758 73.5415L175.175 82.3855C175.25 82.4242 175.326 82.4242 175.363 82.3855C175.439 82.3482 175.439 82.3108 175.439 82.2348V74.2975ZM145.165 74.2975C145.165 73.9948 145.279 73.7308 145.506 73.5415C145.694 73.3148 145.959 73.2015 146.262 73.2015H146.905C147.018 73.2015 147.093 73.2402 147.169 73.3148C147.245 73.3908 147.282 73.4655 147.282 73.5788V83.5202C147.282 83.7842 147.169 84.0482 146.979 84.2375C146.753 84.4642 146.489 84.5775 146.186 84.5775H145.543C145.43 84.5775 145.355 84.5402 145.279 84.4642C145.203 84.4268 145.165 84.3508 145.165 84.2375V74.2975Z" fill="#2C3955"/>
<path d="M204.088 74.4108C204.088 74.7135 204.012 74.9402 203.785 75.1668C203.559 75.3562 203.295 75.4695 203.029 75.4695H188.555C188.252 75.4695 187.987 75.6202 187.76 75.8842C187.533 76.1495 187.457 76.4895 187.457 76.7922C187.457 77.1322 187.533 77.3588 187.76 77.5855C187.987 77.8122 188.252 77.9642 188.555 77.9642H200.875C201.82 77.9642 202.615 78.2668 203.295 78.8708C203.937 79.4748 204.277 80.2322 204.277 81.1762C204.277 82.1215 203.937 82.9148 203.295 83.5948C202.615 84.2375 201.783 84.5775 200.875 84.5775H185.871C185.757 84.5775 185.681 84.5402 185.607 84.4655C185.568 84.4268 185.531 84.3508 185.531 84.2375V83.4068C185.531 83.1042 185.607 82.8388 185.833 82.6122C186.021 82.4242 186.287 82.3108 186.588 82.3108H201.027C201.329 82.3108 201.593 82.1962 201.859 81.9695C202.085 81.7442 202.16 81.4788 202.16 81.1762C202.16 80.8362 202.085 80.6095 201.859 80.3828C201.593 80.1562 201.329 80.0428 201.027 80.0428H188.743C187.76 80.0428 186.967 79.7402 186.324 79.0975C185.644 78.4935 185.341 77.7375 185.341 76.7922C185.341 76.1882 185.493 75.6202 185.795 75.0535C186.097 74.4868 186.513 74.0335 187.043 73.7308C187.533 73.3908 188.139 73.2015 188.743 73.2015H203.748C203.861 73.2015 203.937 73.2402 204.012 73.3148C204.051 73.3908 204.088 73.4668 204.088 73.5788V74.4108Z" fill="#2C3955"/>
<path d="M228.504 74.2975C228.504 73.9948 228.617 73.7308 228.844 73.5415C229.07 73.3148 229.298 73.2015 229.6 73.2015H230.242C230.356 73.2015 230.469 73.2402 230.545 73.3148C230.582 73.3908 230.62 73.4655 230.62 73.5788V79.1348C230.62 80.6468 230.129 81.9322 229.07 82.9908C228.013 84.0482 226.728 84.5775 225.178 84.5775H217.089C215.578 84.5775 214.33 84.0482 213.273 82.9908C212.214 81.9322 211.685 80.6468 211.685 79.1348V74.2975C211.685 73.9948 211.761 73.7308 211.988 73.5415C212.214 73.3148 212.441 73.2015 212.744 73.2015H213.424C213.5 73.2015 213.613 73.2402 213.688 73.3148C213.764 73.3908 213.802 73.4655 213.802 73.5788V79.1735C213.802 80.0042 214.104 80.7602 214.709 81.3655C215.313 82.0082 216.032 82.3108 216.901 82.3108H225.366C226.236 82.3108 226.992 82.0082 227.597 81.3655C228.201 80.7602 228.504 80.0042 228.504 79.1735V74.2975Z" fill="#2C3955"/>
<path d="M257.153 83.5196C257.266 83.5956 257.379 83.7462 257.379 83.9356C257.417 84.1249 257.342 84.2382 257.229 84.3889C257.115 84.5022 256.963 84.5782 256.775 84.5782H255.83C255.338 84.5782 254.885 84.4262 254.507 84.1622L249.783 80.4582C249.367 80.1942 248.913 80.0422 248.459 80.0422H240.711C240.598 80.0422 240.561 80.1182 240.561 80.1942V83.5196C240.561 83.7849 240.447 84.0489 240.221 84.2382C239.994 84.4649 239.766 84.5782 239.427 84.5782H238.785C238.671 84.5782 238.595 84.5409 238.519 84.4649C238.482 84.4262 238.445 84.3516 238.445 84.2382V79.0222C238.445 78.7196 238.519 78.4556 238.746 78.2662C238.973 78.0396 239.201 77.9636 239.502 77.9636H254.129C254.469 77.9636 254.734 77.8129 254.961 77.5862C255.187 77.3582 255.301 77.0569 255.301 76.7542C255.263 76.4516 255.15 76.1502 254.923 75.8849C254.658 75.6209 254.394 75.4689 254.091 75.4689H239.502C239.201 75.4689 238.973 75.3556 238.746 75.1662C238.519 74.9396 238.445 74.7142 238.445 74.4102V73.5796C238.445 73.4662 238.482 73.3902 238.519 73.3156C238.595 73.2396 238.671 73.2022 238.785 73.2022H253.978C254.923 73.2022 255.717 73.5796 256.397 74.3356C257.115 75.0916 257.417 75.9609 257.379 76.9436C257.379 77.5476 257.19 78.0396 256.85 78.5302C256.547 79.0222 256.133 79.3622 255.603 79.6649C255.074 79.9289 254.507 80.0422 253.865 80.0422H252.919C252.882 80.0422 252.845 80.0422 252.806 80.1182C252.806 80.1556 252.806 80.1942 252.845 80.1942L257.153 83.5196Z" fill="#2C3955"/>
<path d="M263.616 84.5782C263.502 84.5782 263.426 84.5409 263.389 84.4262C263.313 84.3516 263.352 84.2382 263.389 84.1622L270.872 74.0329C271.061 73.8062 271.364 73.5796 271.704 73.4289C272.044 73.3156 272.385 73.2022 272.725 73.2022C272.95 73.2022 273.178 73.2396 273.405 73.3156C273.632 73.3529 273.858 73.4662 274.085 73.5796C274.274 73.7302 274.464 73.8822 274.577 74.0329L282.06 84.1622C282.136 84.2382 282.136 84.3516 282.097 84.4262C282.06 84.5409 281.984 84.5782 281.833 84.5782H280.434C279.981 84.5782 279.565 84.3889 279.301 84.0116L272.876 75.3182C272.838 75.2809 272.8 75.2422 272.725 75.2422C272.686 75.2422 272.612 75.2809 272.573 75.3182L266.148 84.0116C265.884 84.3889 265.468 84.5782 265.014 84.5782H263.616Z" fill="#2C3955"/>
<path d="M305.531 74.2975C305.531 73.9948 305.644 73.7308 305.871 73.5415C306.098 73.3148 306.324 73.2015 306.664 73.2015H307.307C307.383 73.2015 307.496 73.2402 307.572 73.3148C307.61 73.3908 307.647 73.4655 307.647 73.5788V83.5202C307.647 83.7842 307.572 84.0482 307.344 84.2375C307.118 84.4642 306.892 84.5775 306.588 84.5775H305.531C305.191 84.5775 304.812 84.4642 304.51 84.2748C303.83 83.8228 302.544 82.9908 300.731 81.7815C298.879 80.5335 296.951 79.2868 294.986 78.0015C293.02 76.6788 291.735 75.8468 291.092 75.4322C291.018 75.3562 290.979 75.3562 290.942 75.3935C290.866 75.4322 290.828 75.5068 290.828 75.5455V83.5202C290.828 83.7842 290.715 84.0482 290.526 84.2375C290.299 84.4642 290.035 84.5775 289.732 84.5775H289.052C288.939 84.5775 288.863 84.5402 288.826 84.4642C288.75 84.4268 288.712 84.3508 288.712 84.2375V74.2975C288.712 73.9948 288.826 73.7308 289.052 73.5415C289.242 73.3148 289.506 73.2015 289.77 73.2015H290.754C291.168 73.2015 291.547 73.3148 291.848 73.5415L305.266 82.3855C305.342 82.4242 305.418 82.4242 305.455 82.3855C305.531 82.3482 305.531 82.3108 305.531 82.2348V74.2975Z" fill="#2C3955"/>
<path d="M320.573 75.4696C319.704 75.4696 318.987 75.7723 318.381 76.3763C317.776 77.0189 317.475 77.7749 317.475 78.6443V79.1736C317.475 80.0043 317.776 80.7603 318.381 81.3656C318.987 82.0083 319.704 82.3109 320.573 82.3109H333.235C333.348 82.3109 333.499 82.3109 333.651 82.3856C333.764 82.4616 333.877 82.5376 333.991 82.6509C334.104 82.7256 334.141 82.8389 334.217 82.9523C334.293 83.1043 334.293 83.2549 334.293 83.4069V84.2376C334.293 84.3509 334.255 84.4269 334.18 84.4656C334.141 84.5403 334.028 84.5789 333.915 84.5789H320.763C319.251 84.5789 318.003 84.0496 316.945 82.9909C315.887 81.9323 315.357 80.6469 315.357 79.1363V78.6443C315.357 77.1323 315.887 75.8469 316.945 74.7896C318.003 73.7309 319.251 73.2016 320.763 73.2016H333.915C334.028 73.2016 334.141 73.2403 334.18 73.3149C334.255 73.3909 334.293 73.4669 334.293 73.5803V74.4109C334.293 74.7136 334.18 74.9403 333.991 75.1669C333.764 75.3563 333.499 75.4696 333.235 75.4696H320.573Z" fill="#2C3955"/>
<path d="M358.633 75.4696H346.009C345.14 75.4696 344.384 75.7723 343.78 76.3763C343.213 77.0189 342.873 77.7749 342.873 78.6443V79.1736C342.873 80.0043 343.213 80.7603 343.78 81.3656C344.384 82.0083 345.14 82.3109 346.009 82.3109H358.633C358.784 82.3109 358.936 82.3109 359.049 82.3856C359.2 82.4616 359.313 82.5376 359.427 82.6509C359.503 82.7256 359.577 82.8389 359.653 82.9523C359.691 83.1043 359.729 83.2549 359.729 83.4069V84.2376C359.729 84.3509 359.691 84.4269 359.616 84.4656C359.577 84.5403 359.465 84.5789 359.352 84.5789H346.199C344.687 84.5789 343.439 84.0496 342.381 82.9909C341.323 81.9323 340.756 80.6469 340.756 79.1363V78.6443C340.756 77.1323 341.323 75.8469 342.381 74.7896C343.439 73.7309 344.687 73.2016 346.199 73.2016H359.352C359.465 73.2016 359.577 73.2403 359.616 73.3149C359.691 73.3909 359.729 73.4669 359.729 73.5803V74.4109C359.729 74.7136 359.616 74.9403 359.427 75.1669C359.2 75.3563 358.936 75.4696 358.633 75.4696ZM346.009 79.8536C345.745 79.8536 345.48 79.7403 345.292 79.5523C345.065 79.3616 344.989 79.0976 344.989 78.8336C344.989 78.5309 345.065 78.3043 345.329 78.0776C345.519 77.8509 345.783 77.7749 346.048 77.7749H357.272C357.348 77.7749 357.461 77.8123 357.499 77.8509C357.575 77.9256 357.612 78.0016 357.612 78.1149V78.7576C357.612 79.0603 357.499 79.3243 357.311 79.5136C357.084 79.7403 356.856 79.8536 356.517 79.8536H346.009Z" fill="#2C3955"/>
</svg>
