<svg width="1210" height="374" viewBox="0 0 1210 374" fill="none" xmlns="http://www.w3.org/2000/svg">
<path fill-rule="evenodd" clip-rule="evenodd" d="M187.246 231.138L218.294 262.186V373.507H156.212V262.186L187.261 231.138H187.246ZM231.152 187.245L262.187 156.197H218.294V112.291L187.246 143.339L156.212 112.305V156.211H112.32L143.354 187.26L112.306 218.308H156.183L156.169 262.186L77.4729 340.882L33.581 296.99L112.263 218.308H0.998535V156.226H112.32L33.581 77.4866L77.4729 33.5946L156.212 112.319V0.998047H218.294V112.262L296.991 33.5659L340.883 77.458L262.187 156.211H373.508V218.294H262.201L231.152 187.245ZM340.911 297.004L297.019 340.896L218.309 262.186V218.294H262.201L340.911 297.004Z" fill="#0040A6"/>
<path d="M519.318 111.287C518.759 105.009 511.836 101.869 498.562 101.869C492.914 101.869 488.743 102.486 486.019 103.719C483.325 104.951 481.963 106.6 481.963 108.693C481.963 110.613 482.651 112.004 484.027 112.893C485.418 113.753 487.983 114.383 491.753 114.813L523.547 118.397C529.195 119.042 533.925 119.888 537.695 121.02C541.494 122.138 544.805 123.744 547.701 125.865C550.567 127.958 552.646 130.653 553.965 133.964C555.269 137.276 555.914 141.346 555.914 146.134C555.914 150.736 555.112 154.749 553.506 158.146C551.872 161.544 549.607 164.353 546.683 166.575C543.744 168.797 539.974 170.56 535.315 171.922C530.657 173.284 525.582 174.244 520.064 174.789C514.559 175.348 508.138 175.62 500.841 175.62C494.104 175.62 488.112 175.348 482.895 174.846C477.677 174.316 472.703 173.37 467.972 171.979C463.242 170.589 459.343 168.74 456.204 166.446C453.107 164.153 450.585 161.157 448.692 157.43C446.8 153.731 445.725 149.374 445.51 144.428H479.841C480.142 148.6 482.006 151.51 485.432 153.115C488.858 154.749 494.233 155.552 501.529 155.552C514.631 155.552 521.211 152.929 521.211 147.711C521.211 145.575 520.408 144.027 518.859 143.052C517.283 142.092 514.574 141.346 510.703 140.802L481.232 136.975C475.698 136.229 471.04 135.312 467.241 134.222C463.471 133.119 460.074 131.57 457.078 129.592C454.054 127.614 451.832 125.048 450.413 121.923C448.965 118.798 448.248 115 448.248 110.556C448.248 106.27 449.108 102.514 450.785 99.2175C452.491 95.9063 454.828 93.1971 457.766 91.0899C460.705 88.9828 464.374 87.2626 468.703 85.9295C473.032 84.5964 477.663 83.6503 482.551 83.0913C487.467 82.5609 492.929 82.2886 498.949 82.2886C533.925 82.2886 551.786 91.9357 552.517 111.273H519.304L519.318 111.287Z" fill="#0040A6"/>
<path d="M645.059 172.239V161.431H644.199C634.652 170.089 622.381 174.432 607.373 174.432C601.725 174.432 596.622 173.758 592.021 172.425C587.42 171.092 583.406 169.143 579.966 166.519C576.511 163.896 573.845 160.47 571.967 156.227C570.089 151.97 569.158 147.053 569.158 141.463V85.6875H600.708V131.529C600.708 143.369 607.287 149.318 620.446 149.318C623.442 149.318 626.252 148.917 628.875 148.171C631.527 147.426 634.064 146.222 636.501 144.559C638.909 142.925 640.859 140.517 642.278 137.392C643.725 134.267 644.442 130.54 644.442 126.268V85.7018H676.021V172.268H645.059V172.239Z" fill="#0040A6"/>
<path d="M770.117 85.6732H801.051V167.451C801.051 172.325 800.678 176.468 799.876 179.908C799.102 183.362 797.597 186.674 795.36 189.856C793.11 193.038 789.985 195.604 786.029 197.525C782.044 199.474 776.783 200.994 770.203 202.155C763.624 203.302 755.74 203.889 746.537 203.889C737.765 203.889 730.124 203.273 723.588 202.069C717.066 200.865 711.877 199.317 708.021 197.41C704.193 195.518 701.069 193.124 698.632 190.272C696.195 187.433 694.546 184.652 693.658 181.986C692.783 179.291 692.181 176.21 691.923 172.784H726.34C727.329 179.65 734.066 183.104 746.523 183.104C751.339 183.104 755.267 182.789 758.363 182.087C761.445 181.413 763.796 180.352 765.401 178.876C767.035 177.399 768.125 175.794 768.684 174.059C769.272 172.296 769.558 170.103 769.558 167.423V153.79H768.626C765.229 157.503 760.771 160.399 755.195 162.448C749.662 164.513 743.513 165.545 736.718 165.545C722.083 165.545 710.543 162.018 702.057 154.923C693.557 147.842 689.329 137.707 689.329 124.491C689.329 111.274 693.557 101.126 702.057 94.0588C710.529 86.9776 722.083 83.437 736.718 83.437C743.67 83.437 749.949 84.5121 755.597 86.6766C761.244 88.8411 765.789 91.9373 769.229 95.951H770.089V85.6302L770.117 85.6732ZM745.749 142.925C753.633 142.925 759.682 141.291 763.853 138.008C768.025 134.726 770.117 130.225 770.117 124.534C770.117 118.843 768.025 114.342 763.853 111.059C759.682 107.763 753.633 106.114 745.749 106.114C738.08 106.114 732.217 107.691 728.203 110.873C724.161 114.027 722.154 118.571 722.154 124.534C722.154 130.468 724.161 135.041 728.203 138.195C732.217 141.348 738.066 142.925 745.749 142.925Z" fill="#0040A6"/>
<path d="M894.007 172.239V161.431H893.147C883.6 170.089 871.33 174.432 856.322 174.432C850.674 174.432 845.571 173.758 840.97 172.425C836.368 171.092 832.354 169.143 828.914 166.519C825.46 163.896 822.794 160.47 820.916 156.227C819.038 151.97 818.106 147.053 818.106 141.463V85.6875H849.656V131.529C849.656 143.369 856.236 149.318 869.395 149.318C872.391 149.318 875.2 148.917 877.823 148.171C880.475 147.426 883.012 146.222 885.449 144.559C887.857 142.925 889.807 140.517 891.226 137.392C892.674 134.267 893.39 130.54 893.39 126.268V85.7018H924.969V172.268H894.007V172.239Z" fill="#0040A6"/>
<path d="M941.823 85.6698H972.757V97.0083H973.617C978.061 92.278 983.321 88.7947 989.399 86.6302C995.491 84.4657 1002.82 83.3906 1011.37 83.3906C1013.84 83.3906 1016.29 83.6056 1018.73 84.0787V114.64C1013.41 113.493 1008.62 112.905 1004.32 112.905C983.709 112.905 973.373 121.148 973.373 137.589V172.221H941.823V85.6554V85.6698Z" fill="#0040A6"/>
<path d="M1079.01 148.323C1083.82 148.323 1087.88 148.194 1091.23 147.865V172.233C1084.81 173.165 1078.32 173.652 1071.8 173.652C1058.64 173.652 1049.55 171.674 1044.49 167.746C1039.46 163.79 1036.95 156.838 1036.95 146.861V105.091H1022.3V85.6818H1036.95V62.1733H1068.43V85.6818H1091.32V105.091H1068.43V140.812C1068.43 143.65 1069.3 145.6 1071.08 146.689C1072.81 147.793 1075.47 148.323 1079.02 148.323H1079.01Z" fill="#0040A6"/>
<path d="M1206.78 158.274C1206.78 165.069 1207.56 169.426 1209.13 171.29V172.222H1178.24C1176.64 170.587 1175.83 167.62 1175.83 163.291V160.324C1171.69 165.427 1166.16 169.254 1159.21 171.792C1152.28 174.329 1144.5 175.59 1135.86 175.59C1131.18 175.59 1126.68 175.031 1122.42 173.913C1118.17 172.795 1114.3 171.103 1110.8 168.882C1107.3 166.66 1104.51 163.693 1102.46 159.98C1100.39 156.239 1099.36 151.953 1099.36 147.136C1099.36 142.463 1100.03 138.392 1101.37 134.995C1102.7 131.598 1104.65 128.846 1107.27 126.738C1109.9 124.631 1112.86 123.026 1116.2 121.893C1119.54 120.775 1123.47 119.973 1127.97 119.485L1164.64 115.816C1167.94 115.443 1170.32 114.798 1171.75 113.895C1173.23 112.992 1173.94 111.515 1173.94 109.537C1173.94 104.835 1168.17 102.499 1156.64 102.499C1151.61 102.499 1147.5 103.244 1144.2 104.764C1140.93 106.254 1139.17 108.534 1138.85 111.558H1105.48C1105.64 107.229 1106.66 103.373 1108.53 99.9759C1110.41 96.5787 1112.89 93.7692 1115.97 91.576C1119.07 89.3828 1122.77 87.591 1127.1 86.1719C1131.43 84.7528 1136 83.7637 1140.79 83.1473C1145.55 82.5596 1150.74 82.2729 1156.33 82.2729C1162.5 82.2729 1168.01 82.5166 1172.91 83.0183C1177.77 83.5057 1182.4 84.3801 1186.74 85.6415C1191.07 86.9029 1194.68 88.5228 1197.55 90.5583C1200.43 92.5937 1202.68 95.2169 1204.35 98.3992C1205.98 101.581 1206.81 105.294 1206.81 109.523V158.245L1206.78 158.274ZM1175.2 134.551V131.182C1173.84 132.071 1171 132.845 1166.68 133.533L1143.57 136.987C1139.8 137.547 1136.96 138.622 1135.07 140.141C1133.15 141.689 1132.2 143.968 1132.2 147.007C1132.2 153.214 1136.9 156.31 1146.29 156.31C1148.7 156.31 1151.15 156.095 1153.7 155.637C1156.24 155.207 1158.81 154.404 1161.43 153.286C1164.02 152.168 1166.35 150.82 1168.35 149.229C1170.36 147.652 1172.02 145.559 1173.27 142.994C1174.56 140.428 1175.19 137.618 1175.19 134.536L1175.2 134.551Z" fill="#0040A6"/>
<path d="M483.508 247.475C491.55 239.433 502.329 235.42 515.789 235.42C530.74 235.42 542.58 239.433 551.382 247.475C560.154 255.531 564.541 266.841 564.541 281.462C564.541 296.097 560.154 307.422 551.382 315.478C542.58 323.534 530.74 327.533 515.789 327.533C501.641 327.533 490.675 323.089 482.892 314.216H482.031V324.164H451.098V207.969H482.648V247.461H483.508V247.475ZM507.016 304.354C515.115 304.354 521.265 302.405 525.436 298.52C529.608 294.621 531.701 288.945 531.701 281.462C531.701 274.008 529.622 268.303 525.436 264.404C521.265 260.476 515.115 258.527 507.016 258.527C498.889 258.527 492.596 260.562 488.224 264.619C483.838 268.704 481.644 274.323 481.644 281.462C481.644 288.629 483.838 294.22 488.224 298.276C492.61 302.319 498.889 304.354 507.016 304.354Z" fill="#0040A6"/>
<path d="M588.87 246.387C598.66 238.288 612.994 234.246 631.902 234.246C650.809 234.246 665.143 238.288 674.905 246.387C684.695 254.486 689.555 265.968 689.555 280.862C689.555 295.755 684.681 307.251 674.905 315.365C665.143 323.492 650.809 327.563 631.902 327.563C612.994 327.563 598.66 323.507 588.898 315.365C579.108 307.266 574.249 295.77 574.249 280.862C574.249 265.968 579.122 254.486 588.884 246.387H588.87ZM613.367 298.235C617.567 302.32 623.745 304.356 631.902 304.356C640.058 304.356 646.236 302.32 650.436 298.235C654.636 294.178 656.743 288.373 656.743 280.847C656.743 273.379 654.636 267.602 650.436 263.517C646.236 259.46 640.058 257.425 631.902 257.425C623.745 257.425 617.567 259.46 613.367 263.517C609.167 267.602 607.06 273.379 607.06 280.847C607.06 288.359 609.167 294.164 613.367 298.235Z" fill="#0040A6"/>
<path d="M796.373 324.18H696.003V300.342L748.869 260.234H699.457V237.614H796.373V261.123L743.235 301.36H796.373V324.18Z" fill="#0040A6"/>
<path d="M819.069 246.387C828.859 238.288 843.194 234.246 862.101 234.246C881.008 234.246 895.342 238.288 905.104 246.387C914.894 254.486 919.754 265.968 919.754 280.862C919.754 295.755 914.88 307.251 905.104 315.365C895.342 323.492 881.008 327.563 862.101 327.563C843.194 327.563 828.859 323.507 819.097 315.365C809.307 307.266 804.447 295.77 804.447 280.862C804.447 265.968 809.321 254.486 819.069 246.387ZM843.566 298.235C847.766 302.32 853.944 304.356 862.101 304.356C870.257 304.356 876.435 302.32 880.635 298.235C884.835 294.178 886.942 288.373 886.942 280.847C886.942 273.379 884.835 267.602 880.635 263.517C876.435 259.46 870.257 257.425 862.101 257.425C853.944 257.425 847.766 259.46 843.566 263.517C839.366 267.602 837.259 273.379 837.259 280.847C837.259 288.359 839.366 294.164 843.566 298.235Z" fill="#0040A6"/>
<path d="M932.938 237.619H963.886V248.958H964.746C969.189 244.228 974.45 240.744 980.528 238.58C986.62 236.415 993.959 235.34 1002.5 235.34C1004.97 235.34 1007.42 235.555 1009.86 236.028V266.589C1004.54 265.443 999.75 264.855 995.436 264.855C974.823 264.855 964.488 273.097 964.488 289.539V324.171H932.938V237.605V237.619Z" fill="#0040A6"/>
<path fill-rule="evenodd" clip-rule="evenodd" d="M701.854 67.2944V46.9395H781.124L791.301 57.1313L781.124 67.3087L701.854 67.2944Z" fill="#0040A6"/>
</svg>
